<mxfile host="app.diagrams.net" modified="2022-05-14T10:48:24.519Z" agent="5.0 (Windows NT 10.0; Win64; x64) AppleWebKit/537.36 (KHTML, like Gecko) Chrome/101.0.4951.54 Safari/537.36 Edg/101.0.1210.39" etag="mNiVZjHhDevOQuRAFV4Y" version="18.0.3" type="github">
  <diagram id="z2ERmampXV34Q7dFAgUw" name="Page-1">
    <mxGraphModel dx="956" dy="705" grid="1" gridSize="10" guides="1" tooltips="1" connect="1" arrows="1" fold="1" page="1" pageScale="1" pageWidth="827" pageHeight="1169" math="0" shadow="0">
      <root>
        <mxCell id="0" />
        <mxCell id="1" parent="0" />
        <mxCell id="PeY2l2dWGEtgDnYQ0aen-1" value="" style="edgeStyle=orthogonalEdgeStyle;rounded=0;orthogonalLoop=1;jettySize=auto;html=1;fontFamily=Lucida Console;fontSize=16;" edge="1" parent="1" source="PeY2l2dWGEtgDnYQ0aen-2" target="PeY2l2dWGEtgDnYQ0aen-5">
          <mxGeometry relative="1" as="geometry" />
        </mxCell>
        <mxCell id="PeY2l2dWGEtgDnYQ0aen-2" value="encmain" style="rounded=0;whiteSpace=wrap;html=1;fontFamily=Lucida Console;fontSize=16;" vertex="1" parent="1">
          <mxGeometry x="120" y="150" width="120" height="60" as="geometry" />
        </mxCell>
        <mxCell id="PeY2l2dWGEtgDnYQ0aen-3" value="" style="edgeStyle=orthogonalEdgeStyle;rounded=0;orthogonalLoop=1;jettySize=auto;html=1;fontFamily=Lucida Console;fontSize=16;" edge="1" parent="1" source="PeY2l2dWGEtgDnYQ0aen-5" target="PeY2l2dWGEtgDnYQ0aen-7">
          <mxGeometry relative="1" as="geometry" />
        </mxCell>
        <mxCell id="PeY2l2dWGEtgDnYQ0aen-4" value="" style="edgeStyle=orthogonalEdgeStyle;rounded=0;orthogonalLoop=1;jettySize=auto;html=1;fontFamily=Lucida Console;fontSize=16;" edge="1" parent="1" source="PeY2l2dWGEtgDnYQ0aen-5" target="PeY2l2dWGEtgDnYQ0aen-15">
          <mxGeometry relative="1" as="geometry" />
        </mxCell>
        <mxCell id="PeY2l2dWGEtgDnYQ0aen-5" value="pcEncApp-&amp;gt;createLib" style="whiteSpace=wrap;html=1;fontSize=16;fontFamily=Lucida Console;rounded=0;" vertex="1" parent="1">
          <mxGeometry x="80" y="290" width="200" height="60" as="geometry" />
        </mxCell>
        <mxCell id="PeY2l2dWGEtgDnYQ0aen-6" value="" style="edgeStyle=orthogonalEdgeStyle;rounded=0;orthogonalLoop=1;jettySize=auto;html=1;fontFamily=Lucida Console;fontSize=16;" edge="1" parent="1" source="PeY2l2dWGEtgDnYQ0aen-7" target="PeY2l2dWGEtgDnYQ0aen-10">
          <mxGeometry relative="1" as="geometry" />
        </mxCell>
        <mxCell id="PeY2l2dWGEtgDnYQ0aen-7" value="xInitLibCfg" style="whiteSpace=wrap;html=1;fontSize=16;fontFamily=Lucida Console;rounded=0;" vertex="1" parent="1">
          <mxGeometry x="400" y="290" width="120" height="60" as="geometry" />
        </mxCell>
        <mxCell id="PeY2l2dWGEtgDnYQ0aen-8" value="" style="edgeStyle=orthogonalEdgeStyle;rounded=0;orthogonalLoop=1;jettySize=auto;html=1;fontFamily=Lucida Console;fontSize=16;" edge="1" parent="1" source="PeY2l2dWGEtgDnYQ0aen-10" target="PeY2l2dWGEtgDnYQ0aen-12">
          <mxGeometry relative="1" as="geometry" />
        </mxCell>
        <mxCell id="PeY2l2dWGEtgDnYQ0aen-9" value="" style="edgeStyle=orthogonalEdgeStyle;rounded=0;orthogonalLoop=1;jettySize=auto;html=1;fontFamily=Lucida Console;fontSize=16;" edge="1" parent="1" source="PeY2l2dWGEtgDnYQ0aen-10" target="PeY2l2dWGEtgDnYQ0aen-13">
          <mxGeometry relative="1" as="geometry" />
        </mxCell>
        <mxCell id="PeY2l2dWGEtgDnYQ0aen-10" value="xCreateLib" style="whiteSpace=wrap;html=1;fontSize=16;fontFamily=Lucida Console;rounded=0;" vertex="1" parent="1">
          <mxGeometry x="600" y="290" width="120" height="60" as="geometry" />
        </mxCell>
        <mxCell id="PeY2l2dWGEtgDnYQ0aen-11" value="" style="edgeStyle=orthogonalEdgeStyle;rounded=0;orthogonalLoop=1;jettySize=auto;html=1;fontFamily=Lucida Console;fontSize=16;" edge="1" parent="1" source="PeY2l2dWGEtgDnYQ0aen-12" target="PeY2l2dWGEtgDnYQ0aen-14">
          <mxGeometry relative="1" as="geometry" />
        </mxCell>
        <mxCell id="PeY2l2dWGEtgDnYQ0aen-12" value="xInitLib" style="whiteSpace=wrap;html=1;fontSize=16;fontFamily=Lucida Console;rounded=0;" vertex="1" parent="1">
          <mxGeometry x="800" y="290" width="120" height="60" as="geometry" />
        </mxCell>
        <mxCell id="PeY2l2dWGEtgDnYQ0aen-13" value="m_cRateCtrl.&lt;br&gt;init" style="whiteSpace=wrap;html=1;fontSize=16;fontFamily=Lucida Console;rounded=0;" vertex="1" parent="1">
          <mxGeometry x="600" y="380" width="120" height="60" as="geometry" />
        </mxCell>
        <mxCell id="PeY2l2dWGEtgDnYQ0aen-14" value="m_cRateCtrl.&lt;br&gt;initHrdParam" style="whiteSpace=wrap;html=1;fontSize=16;fontFamily=Lucida Console;rounded=0;" vertex="1" parent="1">
          <mxGeometry x="800" y="380" width="120" height="60" as="geometry" />
        </mxCell>
        <mxCell id="PeY2l2dWGEtgDnYQ0aen-17" value="" style="edgeStyle=orthogonalEdgeStyle;rounded=0;orthogonalLoop=1;jettySize=auto;html=1;" edge="1" parent="1" source="PeY2l2dWGEtgDnYQ0aen-15" target="PeY2l2dWGEtgDnYQ0aen-16">
          <mxGeometry relative="1" as="geometry" />
        </mxCell>
        <mxCell id="PeY2l2dWGEtgDnYQ0aen-15" value="encApp-&amp;gt;&lt;br&gt;encodePrep" style="whiteSpace=wrap;html=1;fontSize=16;fontFamily=Lucida Console;rounded=0;" vertex="1" parent="1">
          <mxGeometry x="120" y="435" width="120" height="60" as="geometry" />
        </mxCell>
        <mxCell id="PeY2l2dWGEtgDnYQ0aen-19" value="" style="edgeStyle=orthogonalEdgeStyle;rounded=0;orthogonalLoop=1;jettySize=auto;html=1;exitX=0.5;exitY=1;exitDx=0;exitDy=0;" edge="1" parent="1" source="PeY2l2dWGEtgDnYQ0aen-15" target="PeY2l2dWGEtgDnYQ0aen-18">
          <mxGeometry relative="1" as="geometry" />
        </mxCell>
        <mxCell id="PeY2l2dWGEtgDnYQ0aen-16" value="m_cEncLib.&lt;br&gt;encodePrep" style="whiteSpace=wrap;html=1;fontSize=16;fontFamily=Lucida Console;rounded=0;" vertex="1" parent="1">
          <mxGeometry x="320" y="435" width="120" height="60" as="geometry" />
        </mxCell>
        <mxCell id="PeY2l2dWGEtgDnYQ0aen-24" value="" style="edgeStyle=orthogonalEdgeStyle;rounded=0;orthogonalLoop=1;jettySize=auto;html=1;fontFamily=Lucida Console;fontSize=16;" edge="1" parent="1" source="PeY2l2dWGEtgDnYQ0aen-18" target="PeY2l2dWGEtgDnYQ0aen-23">
          <mxGeometry relative="1" as="geometry" />
        </mxCell>
        <mxCell id="PeY2l2dWGEtgDnYQ0aen-18" value="m_cRateCtrl.&lt;br&gt;initRCGOP" style="whiteSpace=wrap;html=1;fontSize=16;fontFamily=Lucida Console;rounded=0;" vertex="1" parent="1">
          <mxGeometry x="120" y="540" width="120" height="60" as="geometry" />
        </mxCell>
        <mxCell id="PeY2l2dWGEtgDnYQ0aen-20" value="" style="curved=1;endArrow=classic;html=1;rounded=0;exitX=0.5;exitY=1;exitDx=0;exitDy=0;" edge="1" parent="1" source="PeY2l2dWGEtgDnYQ0aen-15">
          <mxGeometry width="50" height="50" relative="1" as="geometry">
            <mxPoint x="390" y="610" as="sourcePoint" />
            <mxPoint x="180" y="410" as="targetPoint" />
            <Array as="points">
              <mxPoint x="110" y="520" />
              <mxPoint x="80" y="460" />
              <mxPoint x="110" y="390" />
            </Array>
          </mxGeometry>
        </mxCell>
        <mxCell id="PeY2l2dWGEtgDnYQ0aen-22" value="GOP" style="text;html=1;resizable=0;autosize=1;align=center;verticalAlign=middle;points=[];fillColor=none;strokeColor=none;rounded=0;fontFamily=Lucida Console;fontSize=16;" vertex="1" parent="1">
          <mxGeometry x="77" y="392" width="40" height="20" as="geometry" />
        </mxCell>
        <mxCell id="PeY2l2dWGEtgDnYQ0aen-34" value="" style="edgeStyle=orthogonalEdgeStyle;rounded=0;orthogonalLoop=1;jettySize=auto;html=1;fontFamily=Lucida Console;fontSize=16;" edge="1" parent="1" source="PeY2l2dWGEtgDnYQ0aen-23" target="PeY2l2dWGEtgDnYQ0aen-33">
          <mxGeometry relative="1" as="geometry" />
        </mxCell>
        <mxCell id="PeY2l2dWGEtgDnYQ0aen-23" value="encApp-&amp;gt;&lt;br&gt;encode" style="whiteSpace=wrap;html=1;fontSize=16;fontFamily=Lucida Console;rounded=0;" vertex="1" parent="1">
          <mxGeometry x="120" y="660" width="120" height="60" as="geometry" />
        </mxCell>
        <mxCell id="PeY2l2dWGEtgDnYQ0aen-25" value="" style="curved=1;endArrow=classic;html=1;rounded=0;exitX=0.5;exitY=1;exitDx=0;exitDy=0;" edge="1" parent="1">
          <mxGeometry width="50" height="50" relative="1" as="geometry">
            <mxPoint x="180" y="720" as="sourcePoint" />
            <mxPoint x="180" y="635" as="targetPoint" />
            <Array as="points">
              <mxPoint x="110" y="745" />
              <mxPoint x="80" y="685" />
              <mxPoint x="110" y="615" />
            </Array>
          </mxGeometry>
        </mxCell>
        <mxCell id="PeY2l2dWGEtgDnYQ0aen-26" value="GOP" style="text;html=1;resizable=0;autosize=1;align=center;verticalAlign=middle;points=[];fillColor=none;strokeColor=none;rounded=0;fontFamily=Lucida Console;fontSize=16;" vertex="1" parent="1">
          <mxGeometry x="76" y="618" width="40" height="20" as="geometry" />
        </mxCell>
        <mxCell id="PeY2l2dWGEtgDnYQ0aen-27" value="" style="curved=1;endArrow=classic;html=1;rounded=0;fontFamily=Lucida Console;fontSize=16;exitX=0.5;exitY=1;exitDx=0;exitDy=0;" edge="1" parent="1" source="PeY2l2dWGEtgDnYQ0aen-39">
          <mxGeometry width="50" height="50" relative="1" as="geometry">
            <mxPoint x="60" y="820" as="sourcePoint" />
            <mxPoint x="180" y="400" as="targetPoint" />
            <Array as="points">
              <mxPoint x="70" y="880" />
              <mxPoint x="10" y="730" />
              <mxPoint x="20" y="450" />
              <mxPoint x="80" y="350" />
              <mxPoint x="160" y="370" />
            </Array>
          </mxGeometry>
        </mxCell>
        <mxCell id="PeY2l2dWGEtgDnYQ0aen-28" value="EOF" style="text;html=1;resizable=0;autosize=1;align=center;verticalAlign=middle;points=[];fillColor=none;strokeColor=none;rounded=0;fontFamily=Lucida Console;fontSize=16;" vertex="1" parent="1">
          <mxGeometry x="20" y="560" width="40" height="20" as="geometry" />
        </mxCell>
        <mxCell id="PeY2l2dWGEtgDnYQ0aen-36" value="" style="edgeStyle=orthogonalEdgeStyle;rounded=0;orthogonalLoop=1;jettySize=auto;html=1;fontFamily=Lucida Console;fontSize=16;" edge="1" parent="1" source="PeY2l2dWGEtgDnYQ0aen-33" target="PeY2l2dWGEtgDnYQ0aen-35">
          <mxGeometry relative="1" as="geometry" />
        </mxCell>
        <mxCell id="PeY2l2dWGEtgDnYQ0aen-33" value="m_cEncLib.&lt;br&gt;encode" style="whiteSpace=wrap;html=1;fontSize=16;fontFamily=Lucida Console;rounded=0;" vertex="1" parent="1">
          <mxGeometry x="320" y="660" width="120" height="60" as="geometry" />
        </mxCell>
        <mxCell id="PeY2l2dWGEtgDnYQ0aen-40" value="" style="edgeStyle=orthogonalEdgeStyle;rounded=0;orthogonalLoop=1;jettySize=auto;html=1;fontFamily=Lucida Console;fontSize=16;" edge="1" parent="1" target="PeY2l2dWGEtgDnYQ0aen-39">
          <mxGeometry relative="1" as="geometry">
            <mxPoint x="180" y="720" as="sourcePoint" />
          </mxGeometry>
        </mxCell>
        <mxCell id="PeY2l2dWGEtgDnYQ0aen-42" value="" style="edgeStyle=orthogonalEdgeStyle;rounded=0;orthogonalLoop=1;jettySize=auto;html=1;fontFamily=Lucida Console;fontSize=16;" edge="1" parent="1" source="PeY2l2dWGEtgDnYQ0aen-35" target="PeY2l2dWGEtgDnYQ0aen-41">
          <mxGeometry relative="1" as="geometry" />
        </mxCell>
        <mxCell id="PeY2l2dWGEtgDnYQ0aen-35" value="m_cGOPEncoder.&lt;br&gt;compressGOP" style="whiteSpace=wrap;html=1;fontSize=16;fontFamily=Lucida Console;rounded=0;" vertex="1" parent="1">
          <mxGeometry x="520" y="660" width="140" height="60" as="geometry" />
        </mxCell>
        <mxCell id="PeY2l2dWGEtgDnYQ0aen-39" value="m_cRateCtrl.&lt;br&gt;destroyRCGOP" style="whiteSpace=wrap;html=1;fontSize=16;fontFamily=Lucida Console;rounded=0;" vertex="1" parent="1">
          <mxGeometry x="120" y="780" width="120" height="60" as="geometry" />
        </mxCell>
        <mxCell id="PeY2l2dWGEtgDnYQ0aen-46" value="" style="edgeStyle=orthogonalEdgeStyle;rounded=0;orthogonalLoop=1;jettySize=auto;html=1;fontFamily=Lucida Console;fontSize=16;" edge="1" parent="1" source="PeY2l2dWGEtgDnYQ0aen-41">
          <mxGeometry relative="1" as="geometry">
            <mxPoint x="590" y="880" as="targetPoint" />
          </mxGeometry>
        </mxCell>
        <mxCell id="PeY2l2dWGEtgDnYQ0aen-41" value="xPicInitRateControl" style="whiteSpace=wrap;html=1;fontSize=16;fontFamily=Lucida Console;rounded=0;" vertex="1" parent="1">
          <mxGeometry x="490" y="760" width="200" height="60" as="geometry" />
        </mxCell>
        <mxCell id="PeY2l2dWGEtgDnYQ0aen-50" value="" style="edgeStyle=orthogonalEdgeStyle;rounded=0;orthogonalLoop=1;jettySize=auto;html=1;fontFamily=Lucida Console;fontSize=16;" edge="1" parent="1" source="PeY2l2dWGEtgDnYQ0aen-47" target="PeY2l2dWGEtgDnYQ0aen-49">
          <mxGeometry relative="1" as="geometry" />
        </mxCell>
        <mxCell id="PeY2l2dWGEtgDnYQ0aen-56" value="" style="edgeStyle=orthogonalEdgeStyle;rounded=0;orthogonalLoop=1;jettySize=auto;html=1;fontFamily=Lucida Console;fontSize=16;" edge="1" parent="1" source="PeY2l2dWGEtgDnYQ0aen-47" target="PeY2l2dWGEtgDnYQ0aen-55">
          <mxGeometry relative="1" as="geometry" />
        </mxCell>
        <mxCell id="PeY2l2dWGEtgDnYQ0aen-47" value="m_pcSliceEncoder&lt;br&gt;-&amp;gt;compressSlice" style="whiteSpace=wrap;html=1;fontSize=16;fontFamily=Lucida Console;rounded=0;" vertex="1" parent="1">
          <mxGeometry x="505" y="860" width="170" height="60" as="geometry" />
        </mxCell>
        <mxCell id="PeY2l2dWGEtgDnYQ0aen-52" value="" style="edgeStyle=orthogonalEdgeStyle;rounded=0;orthogonalLoop=1;jettySize=auto;html=1;fontFamily=Lucida Console;fontSize=16;" edge="1" parent="1" source="PeY2l2dWGEtgDnYQ0aen-49" target="PeY2l2dWGEtgDnYQ0aen-51">
          <mxGeometry relative="1" as="geometry" />
        </mxCell>
        <mxCell id="PeY2l2dWGEtgDnYQ0aen-49" value="m_pcRateCtrl-&amp;gt;&lt;br&gt;getRCPic()-&amp;gt;&lt;br&gt;updateAfterPicture" style="whiteSpace=wrap;html=1;fontSize=16;fontFamily=Lucida Console;rounded=0;" vertex="1" parent="1">
          <mxGeometry x="500" y="960" width="180" height="60" as="geometry" />
        </mxCell>
        <mxCell id="PeY2l2dWGEtgDnYQ0aen-54" value="" style="edgeStyle=orthogonalEdgeStyle;rounded=0;orthogonalLoop=1;jettySize=auto;html=1;fontFamily=Lucida Console;fontSize=16;" edge="1" parent="1" source="PeY2l2dWGEtgDnYQ0aen-51" target="PeY2l2dWGEtgDnYQ0aen-53">
          <mxGeometry relative="1" as="geometry" />
        </mxCell>
        <mxCell id="PeY2l2dWGEtgDnYQ0aen-51" value="m_pcRateCtrl-&amp;gt;&lt;br&gt;getRCSeq()-&amp;gt;&lt;br&gt;updateAfterPic" style="whiteSpace=wrap;html=1;fontSize=16;fontFamily=Lucida Console;rounded=0;" vertex="1" parent="1">
          <mxGeometry x="515" y="1060" width="150" height="60" as="geometry" />
        </mxCell>
        <mxCell id="PeY2l2dWGEtgDnYQ0aen-53" value="m_pcRateCtrl-&amp;gt;&lt;br&gt;getRCGOP()-&amp;gt;&lt;br&gt;updateAfterPicture" style="whiteSpace=wrap;html=1;fontSize=16;fontFamily=Lucida Console;rounded=0;" vertex="1" parent="1">
          <mxGeometry x="500" y="1160" width="180" height="60" as="geometry" />
        </mxCell>
        <mxCell id="PeY2l2dWGEtgDnYQ0aen-58" value="" style="edgeStyle=orthogonalEdgeStyle;rounded=0;orthogonalLoop=1;jettySize=auto;html=1;fontFamily=Lucida Console;fontSize=16;" edge="1" parent="1" source="PeY2l2dWGEtgDnYQ0aen-55" target="PeY2l2dWGEtgDnYQ0aen-57">
          <mxGeometry relative="1" as="geometry" />
        </mxCell>
        <mxCell id="PeY2l2dWGEtgDnYQ0aen-55" value="encodeCtus" style="whiteSpace=wrap;html=1;fontSize=16;fontFamily=Lucida Console;rounded=0;" vertex="1" parent="1">
          <mxGeometry x="780" y="860" width="120" height="60" as="geometry" />
        </mxCell>
        <mxCell id="PeY2l2dWGEtgDnYQ0aen-60" value="" style="edgeStyle=orthogonalEdgeStyle;rounded=0;orthogonalLoop=1;jettySize=auto;html=1;fontFamily=Lucida Console;fontSize=16;" edge="1" parent="1" source="PeY2l2dWGEtgDnYQ0aen-57" target="PeY2l2dWGEtgDnYQ0aen-59">
          <mxGeometry relative="1" as="geometry" />
        </mxCell>
        <mxCell id="PeY2l2dWGEtgDnYQ0aen-57" value="pRdCost-&amp;gt;&lt;br&gt;setLambda" style="whiteSpace=wrap;html=1;fontSize=16;fontFamily=Lucida Console;rounded=0;" vertex="1" parent="1">
          <mxGeometry x="780" y="940" width="120" height="60" as="geometry" />
        </mxCell>
        <mxCell id="PeY2l2dWGEtgDnYQ0aen-62" value="" style="edgeStyle=orthogonalEdgeStyle;rounded=0;orthogonalLoop=1;jettySize=auto;html=1;fontFamily=Lucida Console;fontSize=16;" edge="1" parent="1" source="PeY2l2dWGEtgDnYQ0aen-59" target="PeY2l2dWGEtgDnYQ0aen-61">
          <mxGeometry relative="1" as="geometry" />
        </mxCell>
        <mxCell id="PeY2l2dWGEtgDnYQ0aen-59" value="m_pcRdCost-&amp;gt;&lt;br&gt;setDistortionWeight" style="whiteSpace=wrap;html=1;fontSize=16;fontFamily=Lucida Console;rounded=0;" vertex="1" parent="1">
          <mxGeometry x="745" y="1020" width="190" height="60" as="geometry" />
        </mxCell>
        <mxCell id="PeY2l2dWGEtgDnYQ0aen-64" value="" style="edgeStyle=orthogonalEdgeStyle;rounded=0;orthogonalLoop=1;jettySize=auto;html=1;fontFamily=Lucida Console;fontSize=16;" edge="1" parent="1" source="PeY2l2dWGEtgDnYQ0aen-61" target="PeY2l2dWGEtgDnYQ0aen-63">
          <mxGeometry relative="1" as="geometry" />
        </mxCell>
        <mxCell id="PeY2l2dWGEtgDnYQ0aen-61" value="pTrQuant-&amp;gt;&lt;br&gt;setLambdas" style="whiteSpace=wrap;html=1;fontSize=16;fontFamily=Lucida Console;rounded=0;" vertex="1" parent="1">
          <mxGeometry x="780" y="1100" width="120" height="60" as="geometry" />
        </mxCell>
        <mxCell id="PeY2l2dWGEtgDnYQ0aen-63" value="pRateCtrl-&amp;gt;&lt;br&gt;setRCQP" style="whiteSpace=wrap;html=1;fontSize=16;fontFamily=Lucida Console;rounded=0;" vertex="1" parent="1">
          <mxGeometry x="780" y="1180" width="120" height="60" as="geometry" />
        </mxCell>
      </root>
    </mxGraphModel>
  </diagram>
</mxfile>
